<svg xmlns="http://www.w3.org/2000/svg" xmlns:xlink="http://www.w3.org/1999/xlink" width="567" zoomAndPan="magnify" viewBox="0 0 425.25 198.749995" height="265" preserveAspectRatio="xMidYMid meet" version="1.0"><defs><clipPath id="aee0597314"><path d="M 17 0.0507812 L 406 0.0507812 L 406 198.449219 L 17 198.449219 Z M 17 0.0507812 " clip-rule="nonzero"/></clipPath><clipPath id="eeb3ac4f58"><rect x="0" width="389" y="0" height="199"/></clipPath></defs><g clip-path="url(#aee0597314)"><g transform="matrix(1, 0, 0, 1, 17, -0.000000000000008521)"><g clip-path="url(#eeb3ac4f58)"><path fill="#ffba00" d="M 117.320312 10.507812 C 106.917969 10.242188 96.199219 14.738281 87.597656 20.261719 C 86.921875 20.71875 86.34375 21.273438 85.863281 21.933594 C 85.464844 22.410156 85.242188 22.960938 85.203125 23.585938 L 84.785156 95.546875 C 84.785156 96.789062 86.167969 97.113281 87.152344 97.011719 C 102.425781 95.363281 124.378906 90.855469 128.121094 72.777344 C 129.582031 65.695312 126.757812 58.152344 119.902344 55.140625 C 119.539062 54.992188 119.203125 54.855469 118.847656 54.722656 C 122.007812 53.128906 124.929688 51.175781 127.613281 48.867188 C 134.269531 43.089844 139.40625 33.824219 137.394531 24.78125 C 135.347656 15.554688 126.195312 10.734375 117.320312 10.507812 Z M 118.890625 74.449219 C 117.675781 86.648438 104.53125 88.867188 94.402344 90.015625 C 94.457031 80.703125 94.511719 71.390625 94.5625 62.078125 C 95.28125 62.199219 95.996094 62.164062 96.703125 61.980469 C 98.6875 61.523438 100.683594 61.046875 102.667969 60.515625 C 111.300781 59.613281 119.921875 63.921875 118.890625 74.449219 Z M 121.269531 47.328125 C 117.304688 50.605469 112.304688 52.402344 107.238281 53.734375 C 104.109375 54.195312 101.054688 54.953125 98.070312 56.003906 C 96.773438 56.480469 95.609375 57.183594 94.582031 58.113281 C 94.65625 45.988281 94.726562 33.859375 94.796875 21.730469 C 105.78125 16.023438 124.601562 14.011719 127.953125 29.277344 C 129.371094 35.816406 126.316406 43.140625 121.25 47.328125 Z M 121.269531 47.328125 " fill-opacity="1" fill-rule="nonzero"/><path fill="#ffba00" d="M 178.179688 21.472656 C 170.382812 19.308594 162.449219 18.496094 154.375 19.03125 C 152.183594 19.167969 146.894531 21.417969 147.15625 24.300781 C 148.929688 44.214844 149.832031 64.179688 149.867188 84.1875 C 149.867188 85.917969 152.273438 85.734375 153.363281 85.464844 L 170.25 81.289062 C 172.199219 80.8125 175.660156 79.203125 176.164062 76.980469 C 176.664062 74.757812 174.644531 74.476562 172.847656 74.921875 L 159.421875 78.234375 C 159.386719 70.230469 159.207031 62.234375 158.886719 54.238281 L 169.589844 51.96875 C 171.671875 51.527344 174.820312 49.859375 175.5 47.660156 C 176.214844 45.375 173.808594 45.257812 172.1875 45.601562 L 158.640625 48.472656 C 158.273438 40.894531 157.785156 33.316406 157.179688 25.746094 C 162.003906 26.023438 166.742188 26.820312 171.394531 28.128906 C 174.433594 28.980469 182.632812 22.71875 178.179688 21.472656 Z M 178.179688 21.472656 " fill-opacity="1" fill-rule="nonzero"/><path fill="#ffba00" d="M 292.007812 30.898438 C 284.207031 28.734375 276.269531 27.917969 268.195312 28.453125 C 266.003906 28.589844 260.71875 30.84375 260.976562 33.722656 C 262.75 53.640625 263.65625 73.601562 263.691406 93.605469 C 263.691406 95.339844 266.09375 95.160156 267.1875 94.886719 L 284.070312 90.734375 C 286.023438 90.25 289.484375 88.644531 289.984375 86.421875 C 290.484375 84.203125 288.464844 83.917969 286.667969 84.363281 L 273.261719 87.65625 C 273.222656 79.65625 273.046875 71.65625 272.726562 63.664062 L 283.429688 61.394531 C 285.507812 60.949219 288.65625 59.277344 289.339844 57.085938 C 290.050781 54.800781 287.644531 54.675781 286.023438 55.019531 L 272.472656 57.898438 C 272.109375 50.3125 271.621094 42.738281 271.015625 35.167969 C 275.835938 35.449219 280.574219 36.242188 285.226562 37.554688 C 288.257812 38.402344 296.457031 32.15625 292.007812 30.898438 Z M 292.007812 30.898438 " fill-opacity="1" fill-rule="nonzero"/><path fill="#ffba00" d="M 223.792969 13.257812 C 226.113281 13.238281 229.085938 11.554688 230.367188 9.597656 C 231.554688 7.765625 230.820312 6.488281 228.660156 6.511719 L 180.460938 6.945312 C 178.136719 6.964844 175.164062 8.648438 173.886719 10.605469 C 172.695312 12.433594 173.433594 13.714844 175.597656 13.691406 L 195.261719 13.515625 C 195.25 13.605469 195.242188 13.699219 195.242188 13.789062 C 195.5 34.046875 195.761719 54.296875 196.015625 74.539062 C 196.0625 78.199219 205.648438 74.175781 205.605469 70.734375 L 204.875 13.425781 Z M 223.792969 13.257812 " fill-opacity="1" fill-rule="nonzero"/><path fill="#ffba00" d="M 265.492188 24.242188 C 267.8125 24.222656 270.789062 22.535156 272.066406 20.582031 C 273.257812 18.75 272.523438 17.472656 270.359375 17.492188 L 222.160156 17.925781 C 219.839844 17.949219 216.871094 19.632812 215.585938 21.585938 C 214.398438 23.417969 215.136719 24.691406 217.296875 24.675781 L 236.964844 24.5 C 236.949219 24.589844 236.941406 24.679688 236.941406 24.773438 C 237.203125 45.03125 237.460938 65.28125 237.714844 85.523438 C 237.761719 89.183594 247.34375 85.15625 247.300781 81.710938 C 247.058594 62.613281 246.8125 43.511719 246.570312 24.410156 Z M 265.492188 24.242188 " fill-opacity="1" fill-rule="nonzero"/><path fill="#ffba00" d="M 353.054688 79.539062 C 349.902344 75.097656 346.253906 71.117188 342.105469 67.59375 C 337.953125 64.070312 333.4375 61.113281 328.546875 58.726562 C 336.523438 54.390625 342.421875 46.28125 342.019531 36.832031 C 341.328125 20.683594 326.15625 11.699219 311.320312 12.304688 C 308.585938 12.414062 304.570312 14.644531 304.101562 17.574219 C 300.027344 42.839844 297.398438 68.253906 296.207031 93.820312 C 296.042969 97.328125 305.625 93.484375 305.789062 90.007812 C 306.894531 66.382812 309.226562 42.878906 312.789062 19.496094 C 320.878906 21.035156 328.050781 26.132812 331.097656 34.199219 C 334.1875 42.378906 331.636719 56.269531 320.511719 55.394531 C 318.066406 55.203125 315.4375 56.394531 313.734375 58.140625 C 312.445312 59.457031 311.519531 61.292969 313.734375 62.046875 C 316.746094 63.097656 319.65625 64.375 322.472656 65.878906 C 325.285156 67.382812 327.964844 69.097656 330.511719 71.019531 C 333.0625 72.941406 335.445312 75.046875 337.667969 77.339844 C 339.890625 79.632812 341.921875 82.085938 343.761719 84.695312 C 345.894531 87.667969 354.964844 82.226562 353.054688 79.539062 Z M 353.054688 79.539062 " fill-opacity="1" fill-rule="nonzero"/><path fill="#8e61e5" d="M 89.871094 128.574219 C 92.191406 128.554688 95.164062 126.871094 96.441406 124.914062 C 97.632812 123.085938 96.894531 121.8125 94.734375 121.828125 L 46.535156 122.265625 C 44.210938 122.285156 41.238281 123.96875 39.960938 125.90625 C 38.769531 127.738281 39.503906 129.015625 41.667969 128.996094 L 61.332031 128.816406 C 61.324219 128.910156 61.324219 129.003906 61.332031 129.097656 C 61.578125 149.351562 61.835938 169.601562 62.105469 189.847656 C 62.15625 193.507812 71.738281 189.480469 71.691406 186.035156 C 71.449219 166.9375 71.207031 147.835938 70.960938 128.734375 Z M 89.871094 128.574219 " fill-opacity="1" fill-rule="nonzero"/><path fill="#8e61e5" d="M 250.617188 116.976562 C 252.933594 116.957031 255.910156 115.273438 257.1875 113.335938 C 258.378906 111.503906 257.640625 110.226562 255.484375 110.246094 L 207.285156 110.679688 C 204.964844 110.703125 201.992188 112.386719 200.710938 114.34375 C 199.519531 116.171875 200.257812 117.445312 202.421875 117.429688 L 222.085938 117.25 C 222.074219 117.339844 222.066406 117.433594 222.066406 117.527344 C 222.324219 137.785156 222.582031 158.035156 222.839844 178.277344 C 222.886719 181.9375 232.46875 177.910156 232.425781 174.464844 C 232.179688 155.367188 231.9375 136.265625 231.695312 117.164062 Z M 250.617188 116.976562 " fill-opacity="1" fill-rule="nonzero"/><path fill="#8e61e5" d="M 381.695312 180.699219 C 378.542969 176.257812 374.890625 172.277344 370.742188 168.753906 C 366.589844 165.230469 362.070312 162.273438 357.183594 159.886719 C 365.15625 155.546875 371.058594 147.441406 370.65625 137.988281 C 369.960938 121.84375 354.789062 112.855469 339.953125 113.460938 C 337.21875 113.566406 333.207031 115.800781 332.734375 118.730469 C 328.664062 143.988281 326.03125 169.398438 324.835938 194.957031 C 324.671875 198.46875 334.261719 194.625 334.421875 191.148438 C 335.53125 167.527344 337.867188 144.03125 341.433594 120.65625 C 349.523438 122.191406 356.695312 127.289062 359.746094 135.355469 C 362.839844 143.535156 360.28125 157.425781 349.15625 156.554688 C 346.714844 156.359375 344.085938 157.550781 342.378906 159.296875 C 341.089844 160.613281 340.171875 162.449219 342.378906 163.207031 C 345.390625 164.257812 348.300781 165.535156 351.117188 167.039062 C 353.929688 168.542969 356.609375 170.257812 359.15625 172.179688 C 361.707031 174.101562 364.089844 176.207031 366.3125 178.5 C 368.53125 180.792969 370.5625 183.246094 372.40625 185.855469 C 374.53125 188.824219 383.601562 183.386719 381.695312 180.699219 Z M 381.695312 180.699219 " fill-opacity="1" fill-rule="nonzero"/><path fill="#8e61e5" d="M 102.199219 137.039062 C 101.546875 137.207031 100.910156 137.429688 100.292969 137.703125 C 90.699219 141.386719 85.808594 151.652344 84.957031 161.460938 C 84.019531 172.03125 87.234375 188.242188 99.265625 191.1875 C 110.164062 193.855469 120.65625 184.230469 125.71875 175.578125 C 130.867188 166.792969 133.9375 153.53125 128.863281 144.023438 C 124.300781 135.488281 110.464844 134.992188 102.199219 137.039062 Z M 115.671875 178.910156 C 112.882812 182.898438 109.554688 186.335938 104.472656 183.917969 C 99.476562 181.546875 97.027344 176.109375 95.707031 171.023438 C 94.246094 165.332031 93.800781 159.027344 95.230469 153.285156 C 95.960938 150.355469 97.421875 144.84375 100.265625 143.269531 C 106.886719 141.867188 116.699219 143.207031 119.859375 149.714844 C 124.1875 158.613281 121.082031 171.195312 115.671875 178.910156 Z M 115.671875 178.910156 " fill-opacity="1" fill-rule="nonzero"/><path fill="#8e61e5" d="M 177.484375 149.015625 C 177.007812 146.636719 173.308594 147.402344 170.640625 149.078125 C 168.484375 149.472656 166.316406 149.578125 164.132812 149.390625 C 161.949219 149.207031 159.832031 148.734375 157.773438 147.980469 C 155.558594 147.171875 153.027344 148.277344 151.226562 149.621094 C 150.53125 150.144531 147.300781 153.320312 149.46875 154.109375 C 152.496094 155.230469 155.621094 155.902344 158.84375 156.121094 C 162.066406 156.339844 165.25 156.097656 168.402344 155.394531 C 169.523438 161.171875 170.480469 167.039062 169.988281 172.933594 C 169.570312 177.902344 167.847656 185.09375 163.125 187.804688 C 158.40625 190.511719 152.515625 187.625 149.742188 183.523438 C 146.640625 178.929688 145.789062 173.132812 145.144531 167.746094 C 143.59375 154.695312 144.417969 141.0625 148.167969 128.441406 C 149.628906 123.523438 152.039062 116.132812 157.460938 114.316406 C 163.097656 112.429688 168.960938 117.734375 169.097656 123.230469 C 169.191406 126.890625 178.769531 122.863281 178.683594 119.421875 C 178.546875 114.015625 174.953125 109.726562 169.921875 108.019531 C 164.238281 106.09375 157.933594 108.046875 152.976562 111.023438 C 140.925781 118.269531 137.484375 132.929688 135.75 145.949219 C 134.75 153.464844 134.589844 161 135.261719 168.550781 C 135.800781 174.578125 136.539062 181.25 139.34375 186.71875 C 145.261719 198.273438 159.53125 197.011719 168.6875 190.132812 C 181.902344 180.199219 180.335938 163.421875 177.484375 149.015625 Z M 177.484375 149.015625 " fill-opacity="1" fill-rule="nonzero"/><path fill="#8e61e5" d="M 209.875 127.515625 C 204.5625 126.679688 199.234375 125.617188 193.890625 125.011719 C 189.9375 124.554688 186.035156 125.441406 183.089844 128.328125 C 180.085938 131.257812 180.589844 135.367188 180.488281 139.246094 C 180.347656 144.695312 180.203125 150.144531 180.058594 155.59375 C 179.914062 161.042969 179.769531 166.492188 179.625 171.941406 C 179.503906 176.515625 178.742188 181.570312 179.464844 186.101562 C 180.066406 189.871094 182.675781 191.453125 186.378906 191.320312 C 191.757812 191.132812 197.300781 189.714844 202.617188 188.882812 C 205.023438 188.515625 207.78125 187.378906 209.191406 185.222656 C 210.226562 183.632812 209.761719 181.78125 207.484375 182.136719 L 197.894531 183.636719 C 195.414062 184.023438 190.875 185.71875 189.316406 183.132812 C 188.21875 181.300781 188.980469 177.476562 189.03125 175.472656 L 189.289062 165.664062 C 189.351562 163.273438 189.414062 160.886719 189.480469 158.5 L 198.738281 158.253906 C 201.074219 158.191406 204.019531 156.574219 205.3125 154.59375 C 206.484375 152.796875 205.785156 151.449219 203.605469 151.507812 L 189.667969 151.875 L 189.800781 146.851562 C 189.886719 143.578125 189.976562 140.308594 190.058594 137.039062 C 190.09375 135.902344 189.875 133.917969 189.894531 132.101562 C 190.097656 132.101562 190.261719 132.125 190.328125 132.132812 L 194.320312 132.761719 L 203.113281 134.136719 C 205.476562 134.503906 208.277344 133.039062 209.890625 131.394531 C 210.910156 130.375 212.308594 127.894531 209.875 127.515625 Z M 209.875 127.515625 " fill-opacity="1" fill-rule="nonzero"/><path fill="#8e61e5" d="M 312.441406 123.527344 C 307.128906 122.691406 301.796875 121.636719 296.453125 121.023438 C 292.503906 120.570312 288.601562 121.457031 285.652344 124.339844 C 282.652344 127.269531 283.15625 131.378906 283.054688 135.261719 C 282.914062 140.722656 282.769531 146.167969 282.621094 151.605469 C 282.472656 157.046875 282.328125 162.496094 282.1875 167.957031 C 282.066406 172.53125 281.304688 177.582031 282.027344 182.113281 C 282.628906 185.886719 285.242188 187.464844 288.941406 187.335938 C 294.320312 187.144531 299.863281 185.726562 305.179688 184.898438 C 307.585938 184.53125 310.34375 183.390625 311.753906 181.253906 C 312.789062 179.660156 312.332031 177.808594 310.046875 178.164062 L 300.460938 179.664062 C 297.976562 180.054688 293.4375 181.75 291.878906 179.160156 C 290.785156 177.328125 291.542969 173.503906 291.59375 171.5 C 291.679688 168.234375 291.769531 164.964844 291.851562 161.691406 C 291.917969 159.304688 291.980469 156.917969 292.042969 154.527344 L 301.304688 154.285156 C 303.636719 154.222656 306.582031 152.601562 307.875 150.640625 C 309.046875 148.839844 308.347656 147.496094 306.171875 147.550781 L 292.234375 147.917969 L 292.363281 142.890625 C 292.453125 139.621094 292.539062 136.351562 292.625 133.078125 C 292.65625 131.941406 292.4375 129.960938 292.460938 128.140625 C 292.660156 128.140625 292.824219 128.164062 292.890625 128.171875 L 296.855469 128.808594 L 305.648438 130.1875 C 308.011719 130.554688 310.8125 129.089844 312.425781 127.441406 C 313.457031 126.386719 314.871094 123.910156 312.441406 123.527344 Z M 312.441406 123.527344 " fill-opacity="1" fill-rule="nonzero"/><path fill="#8e61e5" d="M 263.203125 130.539062 C 263.253906 136.394531 263.304688 142.242188 263.351562 148.074219 L 246.695312 149.515625 L 247.144531 126.726562 C 247.21875 123.152344 237.628906 127.074219 237.558594 130.539062 L 236.386719 189.96875 C 236.316406 193.542969 245.90625 189.621094 245.972656 186.15625 L 246.570312 155.839844 L 263.394531 154.375 L 263.679688 188.039062 C 263.710938 191.675781 273.296875 187.671875 273.265625 184.226562 L 272.773438 126.71875 C 272.757812 123.09375 263.175781 127.097656 263.203125 130.539062 Z M 263.203125 130.539062 " fill-opacity="1" fill-rule="nonzero"/><path fill="#8e61e5" d="M 378.746094 16.71875 C 372.542969 21.5625 365.78125 25.417969 358.457031 28.277344 C 355.066406 29.601562 356.542969 35.140625 359.972656 33.796875 C 368.214844 30.582031 375.820312 26.238281 382.78125 20.769531 C 385.679688 18.503906 381.609375 14.476562 378.746094 16.71875 Z M 378.746094 16.71875 " fill-opacity="1" fill-rule="nonzero"/><path fill="#8e61e5" d="M 359.402344 3.015625 L 347.839844 19.007812 C 345.679688 21.992188 350.636719 24.863281 352.773438 21.898438 L 364.355469 5.902344 C 366.496094 2.921875 361.546875 0.0585938 359.402344 3.015625 Z M 359.402344 3.015625 " fill-opacity="1" fill-rule="nonzero"/><path fill="#8e61e5" d="M 383.683594 54.257812 L 360.929688 44.804688 C 357.539062 43.394531 356.0625 48.933594 359.414062 50.328125 L 382.164062 59.777344 C 385.558594 61.1875 387.035156 55.648438 383.683594 54.257812 Z M 383.683594 54.257812 " fill-opacity="1" fill-rule="nonzero"/><path fill="#ffba00" d="M 34.078125 114.308594 L 5.597656 106.964844 C 2.042969 106.046875 0.511719 111.566406 4.074219 112.484375 L 32.554688 119.828125 C 36.121094 120.753906 37.636719 115.226562 34.078125 114.308594 Z M 34.078125 114.308594 " fill-opacity="1" fill-rule="nonzero"/><path fill="#ffba00" d="M 23.199219 129.34375 L 4.28125 132.378906 C 0.664062 132.957031 2.199219 138.480469 5.800781 137.902344 L 24.71875 134.867188 C 28.335938 134.296875 26.800781 128.765625 23.199219 129.34375 Z M 23.199219 129.34375 " fill-opacity="1" fill-rule="nonzero"/><path fill="#ffba00" d="M 21.914062 147.003906 L 6.761719 162.203125 C 4.15625 164.8125 8.195312 168.863281 10.777344 166.25 L 25.933594 151.054688 C 28.558594 148.445312 24.519531 144.394531 21.914062 147.003906 Z M 21.914062 147.003906 " fill-opacity="1" fill-rule="nonzero"/></g></g></g></svg>